<mxfile host="app.diagrams.net" modified="2022-12-13T11:42:19.354Z" agent="5.0 (Windows NT 10.0; Win64; x64) AppleWebKit/537.36 (KHTML, like Gecko) Chrome/108.0.0.0 Safari/537.36 Edg/108.0.1462.46" etag="T9JpiHQL-jE4ZDzfvrc7" version="20.6.1" type="github">
  <diagram id="IMoWFRzWkRb1YAJqIgc9" name="Page-1">
    <mxGraphModel dx="1146" dy="695" grid="1" gridSize="10" guides="1" tooltips="1" connect="1" arrows="1" fold="1" page="1" pageScale="1" pageWidth="1169" pageHeight="827" math="0" shadow="1">
      <root>
        <mxCell id="0" />
        <mxCell id="1" parent="0" />
        <mxCell id="REOEvnUnP1cKmhOiyPTP-1" value="&lt;font style=&quot;font-size: 12px;&quot;&gt;Padronização de resposta de capabilidade MMT&lt;/font&gt;" style="swimlane;childLayout=stackLayout;resizeParent=1;resizeParentMax=0;horizontal=0;startSize=20;horizontalStack=0;html=1;rounded=0;fontSize=10;" parent="1" vertex="1">
          <mxGeometry x="30" y="20" width="1630" height="780" as="geometry">
            <mxRectangle x="110" y="90" width="40" height="60" as="alternateBounds" />
          </mxGeometry>
        </mxCell>
        <mxCell id="REOEvnUnP1cKmhOiyPTP-2" value="ADAF" style="swimlane;startSize=20;horizontal=0;html=1;rounded=0;" parent="REOEvnUnP1cKmhOiyPTP-1" vertex="1">
          <mxGeometry x="20" width="1610" height="100" as="geometry">
            <mxRectangle x="20" width="650" height="30" as="alternateBounds" />
          </mxGeometry>
        </mxCell>
        <mxCell id="REOEvnUnP1cKmhOiyPTP-8" style="edgeStyle=orthogonalEdgeStyle;rounded=0;orthogonalLoop=1;jettySize=auto;html=1;exitX=1;exitY=0.5;exitDx=0;exitDy=0;exitPerimeter=0;entryX=0;entryY=0.5;entryDx=0;entryDy=0;" parent="REOEvnUnP1cKmhOiyPTP-2" source="REOEvnUnP1cKmhOiyPTP-5" target="REOEvnUnP1cKmhOiyPTP-7" edge="1">
          <mxGeometry relative="1" as="geometry" />
        </mxCell>
        <mxCell id="REOEvnUnP1cKmhOiyPTP-5" value="" style="strokeWidth=2;html=1;shape=mxgraph.flowchart.start_2;whiteSpace=wrap;fillColor=#d5e8d4;strokeColor=#82b366;" parent="REOEvnUnP1cKmhOiyPTP-2" vertex="1">
          <mxGeometry x="40" y="40" width="30" height="30" as="geometry" />
        </mxCell>
        <mxCell id="REOEvnUnP1cKmhOiyPTP-7" value="&lt;span style=&quot;font-size: 10px;&quot;&gt;Publicação portal para análise&lt;br&gt;&lt;/span&gt;" style="rounded=1;whiteSpace=wrap;html=1;absoluteArcSize=1;arcSize=14;strokeWidth=2;fillColor=#dae8fc;strokeColor=#6c8ebf;" parent="REOEvnUnP1cKmhOiyPTP-2" vertex="1">
          <mxGeometry x="100" y="30" width="100" height="50" as="geometry" />
        </mxCell>
        <mxCell id="v3_SV2aUN1-4RCRF9CUd-7" style="edgeStyle=orthogonalEdgeStyle;rounded=0;orthogonalLoop=1;jettySize=auto;html=1;exitX=0.5;exitY=1;exitDx=0;exitDy=0;fontSize=10;entryX=0.5;entryY=0;entryDx=0;entryDy=0;" parent="REOEvnUnP1cKmhOiyPTP-1" source="REOEvnUnP1cKmhOiyPTP-7" target="Oy1cbulnrsk7dN2Pcbd7-12" edge="1">
          <mxGeometry relative="1" as="geometry">
            <mxPoint x="180" y="120" as="targetPoint" />
          </mxGeometry>
        </mxCell>
        <mxCell id="REOEvnUnP1cKmhOiyPTP-3" value="PMB" style="swimlane;startSize=20;horizontal=0;html=1;rounded=0;" parent="REOEvnUnP1cKmhOiyPTP-1" vertex="1">
          <mxGeometry x="20" y="100" width="1610" height="160" as="geometry">
            <mxRectangle x="20" y="80" width="880" height="30" as="alternateBounds" />
          </mxGeometry>
        </mxCell>
        <mxCell id="Oy1cbulnrsk7dN2Pcbd7-7" style="edgeStyle=orthogonalEdgeStyle;rounded=0;orthogonalLoop=1;jettySize=auto;html=1;exitX=1;exitY=0.5;exitDx=0;exitDy=0;entryX=0;entryY=0.5;entryDx=0;entryDy=0;" parent="REOEvnUnP1cKmhOiyPTP-3" source="7S2bCDqArC1DxhJI_XL0-13" target="7S2bCDqArC1DxhJI_XL0-14" edge="1">
          <mxGeometry relative="1" as="geometry">
            <mxPoint x="1119" y="90" as="sourcePoint" />
            <mxPoint x="1190" y="90" as="targetPoint" />
          </mxGeometry>
        </mxCell>
        <mxCell id="v3_SV2aUN1-4RCRF9CUd-10" value="Possível montagem?" style="rhombus;whiteSpace=wrap;html=1;strokeColor=#a6a61d;fontSize=10;fillColor=#ffffcc;" parent="REOEvnUnP1cKmhOiyPTP-3" vertex="1">
          <mxGeometry x="660" y="55" width="70" height="70" as="geometry" />
        </mxCell>
        <mxCell id="v3_SV2aUN1-4RCRF9CUd-21" value="" style="strokeWidth=2;html=1;shape=mxgraph.flowchart.start_2;whiteSpace=wrap;fillColor=#eeaaaa;strokeColor=#9f0d0d;" parent="REOEvnUnP1cKmhOiyPTP-3" vertex="1">
          <mxGeometry x="1520" y="75" width="30" height="30" as="geometry" />
        </mxCell>
        <mxCell id="v3_SV2aUN1-4RCRF9CUd-45" value="Não, &lt;i&gt;impossible&lt;/i&gt;" style="text;html=1;strokeColor=none;fillColor=none;align=center;verticalAlign=middle;whiteSpace=wrap;rounded=0;fontSize=10;" parent="REOEvnUnP1cKmhOiyPTP-3" vertex="1">
          <mxGeometry x="610" y="35" width="80" height="30" as="geometry" />
        </mxCell>
        <mxCell id="Oy1cbulnrsk7dN2Pcbd7-18" style="edgeStyle=orthogonalEdgeStyle;rounded=0;orthogonalLoop=1;jettySize=auto;html=1;exitX=1;exitY=0.5;exitDx=0;exitDy=0;entryX=0;entryY=0.5;entryDx=0;entryDy=0;" parent="REOEvnUnP1cKmhOiyPTP-3" source="Oy1cbulnrsk7dN2Pcbd7-8" target="v3_SV2aUN1-4RCRF9CUd-1" edge="1">
          <mxGeometry relative="1" as="geometry" />
        </mxCell>
        <mxCell id="Oy1cbulnrsk7dN2Pcbd7-8" value="&lt;font style=&quot;font-size: 10px;&quot;&gt;Verificar tabela de particularidades&lt;/font&gt;" style="rounded=1;whiteSpace=wrap;html=1;absoluteArcSize=1;arcSize=14;strokeWidth=2;fillColor=#dae8fc;strokeColor=#6c8ebf;" parent="REOEvnUnP1cKmhOiyPTP-3" vertex="1">
          <mxGeometry x="260" y="65" width="100" height="50" as="geometry" />
        </mxCell>
        <mxCell id="Oy1cbulnrsk7dN2Pcbd7-13" style="edgeStyle=orthogonalEdgeStyle;rounded=0;orthogonalLoop=1;jettySize=auto;html=1;exitX=1;exitY=0.5;exitDx=0;exitDy=0;entryX=0;entryY=0.5;entryDx=0;entryDy=0;" parent="REOEvnUnP1cKmhOiyPTP-3" source="Oy1cbulnrsk7dN2Pcbd7-12" target="Oy1cbulnrsk7dN2Pcbd7-8" edge="1">
          <mxGeometry relative="1" as="geometry" />
        </mxCell>
        <mxCell id="Oy1cbulnrsk7dN2Pcbd7-12" value="&lt;span style=&quot;font-size: 10px;&quot;&gt;Avaliação do DataSheet&lt;/span&gt;" style="rounded=1;whiteSpace=wrap;html=1;absoluteArcSize=1;arcSize=14;strokeWidth=2;fillColor=#dae8fc;strokeColor=#6c8ebf;" parent="REOEvnUnP1cKmhOiyPTP-3" vertex="1">
          <mxGeometry x="100" y="65" width="100" height="50" as="geometry" />
        </mxCell>
        <mxCell id="Oy1cbulnrsk7dN2Pcbd7-19" style="edgeStyle=orthogonalEdgeStyle;rounded=0;orthogonalLoop=1;jettySize=auto;html=1;exitX=1;exitY=0.5;exitDx=0;exitDy=0;entryX=0;entryY=0.5;entryDx=0;entryDy=0;" parent="REOEvnUnP1cKmhOiyPTP-3" source="v3_SV2aUN1-4RCRF9CUd-1" target="REOEvnUnP1cKmhOiyPTP-9" edge="1">
          <mxGeometry relative="1" as="geometry" />
        </mxCell>
        <mxCell id="v3_SV2aUN1-4RCRF9CUd-1" value="&lt;font style=&quot;font-size: 10px;&quot;&gt;Tempo resposta&lt;/font&gt;" style="ellipse;whiteSpace=wrap;html=1;aspect=fixed;fillColor=#ffffcc;strokeColor=#a6a61d;" parent="REOEvnUnP1cKmhOiyPTP-3" vertex="1">
          <mxGeometry x="410" y="65" width="50" height="50" as="geometry" />
        </mxCell>
        <mxCell id="Oy1cbulnrsk7dN2Pcbd7-20" style="edgeStyle=orthogonalEdgeStyle;rounded=0;orthogonalLoop=1;jettySize=auto;html=1;exitX=1;exitY=0.5;exitDx=0;exitDy=0;entryX=0;entryY=0.5;entryDx=0;entryDy=0;" parent="REOEvnUnP1cKmhOiyPTP-3" source="REOEvnUnP1cKmhOiyPTP-9" target="v3_SV2aUN1-4RCRF9CUd-10" edge="1">
          <mxGeometry relative="1" as="geometry" />
        </mxCell>
        <mxCell id="REOEvnUnP1cKmhOiyPTP-9" value="&lt;font style=&quot;font-size: 10px;&quot;&gt;Resposta de capabilidade&lt;/font&gt;" style="rounded=1;whiteSpace=wrap;html=1;absoluteArcSize=1;arcSize=14;strokeWidth=2;fillColor=#dae8fc;strokeColor=#6c8ebf;" parent="REOEvnUnP1cKmhOiyPTP-3" vertex="1">
          <mxGeometry x="510" y="65" width="100" height="50" as="geometry" />
        </mxCell>
        <mxCell id="Oy1cbulnrsk7dN2Pcbd7-26" value="FO-FLB-53-PMB-0XX" style="text;html=1;strokeColor=none;fillColor=none;align=center;verticalAlign=middle;whiteSpace=wrap;rounded=0;fontSize=10;" parent="REOEvnUnP1cKmhOiyPTP-3" vertex="1">
          <mxGeometry x="260" y="115" width="100" height="30" as="geometry" />
        </mxCell>
        <mxCell id="Oy1cbulnrsk7dN2Pcbd7-2" value="2 ~ 3 dias" style="text;html=1;strokeColor=none;fillColor=none;align=center;verticalAlign=middle;whiteSpace=wrap;rounded=0;fontSize=10;" parent="REOEvnUnP1cKmhOiyPTP-3" vertex="1">
          <mxGeometry x="405" y="115" width="60" height="30" as="geometry" />
        </mxCell>
        <mxCell id="Oy1cbulnrsk7dN2Pcbd7-16" value="FO-FLB-53-PMB-001" style="text;html=1;strokeColor=none;fillColor=none;align=center;verticalAlign=middle;whiteSpace=wrap;rounded=0;fontSize=10;" parent="REOEvnUnP1cKmhOiyPTP-3" vertex="1">
          <mxGeometry x="510" y="115" width="100" height="30" as="geometry" />
        </mxCell>
        <mxCell id="Oy1cbulnrsk7dN2Pcbd7-36" value="Segundo indicado FO-FLB-53-PMB-0XX" style="text;html=1;strokeColor=none;fillColor=none;align=center;verticalAlign=middle;whiteSpace=wrap;rounded=0;fontSize=10;" parent="REOEvnUnP1cKmhOiyPTP-3" vertex="1">
          <mxGeometry x="1019" y="115" width="100" height="30" as="geometry" />
        </mxCell>
        <mxCell id="7S2bCDqArC1DxhJI_XL0-13" value="&lt;span style=&quot;font-size: 10px;&quot;&gt;Verificar necessidade de revisão dos documentos&lt;/span&gt;" style="rounded=1;whiteSpace=wrap;html=1;absoluteArcSize=1;arcSize=14;strokeWidth=2;fillColor=#dae8fc;strokeColor=#6c8ebf;" vertex="1" parent="REOEvnUnP1cKmhOiyPTP-3">
          <mxGeometry x="1010" y="65" width="100" height="50" as="geometry" />
        </mxCell>
        <mxCell id="7S2bCDqArC1DxhJI_XL0-14" value="&lt;span style=&quot;font-size: 10px;&quot;&gt;Verificar necessidade de revisão relatório de montagem&lt;/span&gt;" style="rounded=1;whiteSpace=wrap;html=1;absoluteArcSize=1;arcSize=14;strokeWidth=2;fillColor=#dae8fc;strokeColor=#6c8ebf;" vertex="1" parent="REOEvnUnP1cKmhOiyPTP-3">
          <mxGeometry x="1170" y="65" width="100" height="50" as="geometry" />
        </mxCell>
        <mxCell id="7S2bCDqArC1DxhJI_XL0-8" value="&lt;span style=&quot;font-size: 10px;&quot;&gt;Gerar alerta para os departamentos&lt;/span&gt;" style="rounded=1;whiteSpace=wrap;html=1;absoluteArcSize=1;arcSize=14;strokeWidth=2;fillColor=#dae8fc;strokeColor=#6c8ebf;" vertex="1" parent="REOEvnUnP1cKmhOiyPTP-3">
          <mxGeometry x="800" y="65" width="100" height="50" as="geometry" />
        </mxCell>
        <mxCell id="Oy1cbulnrsk7dN2Pcbd7-24" style="edgeStyle=orthogonalEdgeStyle;rounded=0;orthogonalLoop=1;jettySize=auto;html=1;exitX=1;exitY=0.5;exitDx=0;exitDy=0;entryX=0;entryY=0.5;entryDx=0;entryDy=0;" parent="REOEvnUnP1cKmhOiyPTP-3" source="v3_SV2aUN1-4RCRF9CUd-10" target="7S2bCDqArC1DxhJI_XL0-8" edge="1">
          <mxGeometry relative="1" as="geometry">
            <mxPoint x="790" y="90" as="targetPoint" />
          </mxGeometry>
        </mxCell>
        <mxCell id="7S2bCDqArC1DxhJI_XL0-17" value="Sim" style="edgeLabel;html=1;align=center;verticalAlign=middle;resizable=0;points=[];" vertex="1" connectable="0" parent="Oy1cbulnrsk7dN2Pcbd7-24">
          <mxGeometry x="-0.2536" y="-1" relative="1" as="geometry">
            <mxPoint as="offset" />
          </mxGeometry>
        </mxCell>
        <mxCell id="v3_SV2aUN1-4RCRF9CUd-9" style="edgeStyle=orthogonalEdgeStyle;rounded=0;orthogonalLoop=1;jettySize=auto;html=1;entryX=0;entryY=0.5;entryDx=0;entryDy=0;fontSize=10;startArrow=none;exitX=1;exitY=0.5;exitDx=0;exitDy=0;" parent="REOEvnUnP1cKmhOiyPTP-3" target="7S2bCDqArC1DxhJI_XL0-13" edge="1" source="7S2bCDqArC1DxhJI_XL0-8">
          <mxGeometry relative="1" as="geometry">
            <mxPoint x="890" y="90" as="sourcePoint" />
            <mxPoint x="1019" y="90" as="targetPoint" />
          </mxGeometry>
        </mxCell>
        <mxCell id="REOEvnUnP1cKmhOiyPTP-4" value="MMT" style="swimlane;startSize=20;horizontal=0;html=1;rounded=0;" parent="REOEvnUnP1cKmhOiyPTP-1" vertex="1">
          <mxGeometry x="20" y="260" width="1610" height="100" as="geometry">
            <mxRectangle x="20" y="200" width="880" height="30" as="alternateBounds" />
          </mxGeometry>
        </mxCell>
        <mxCell id="7S2bCDqArC1DxhJI_XL0-9" value="&lt;span style=&quot;font-size: 10px;&quot;&gt;Verificar necessidade de treinamento operacional&lt;/span&gt;" style="rounded=1;whiteSpace=wrap;html=1;absoluteArcSize=1;arcSize=14;strokeWidth=2;fillColor=#dae8fc;strokeColor=#6c8ebf;" vertex="1" parent="REOEvnUnP1cKmhOiyPTP-4">
          <mxGeometry x="1010" y="25" width="100" height="50" as="geometry" />
        </mxCell>
        <mxCell id="3ngB4kAbQusvfdiSP5Xu-5" value="MIP" style="swimlane;startSize=20;horizontal=0;html=1;rounded=0;" parent="REOEvnUnP1cKmhOiyPTP-1" vertex="1">
          <mxGeometry x="20" y="360" width="1610" height="100" as="geometry">
            <mxRectangle x="20" y="330" width="780" height="30" as="alternateBounds" />
          </mxGeometry>
        </mxCell>
        <mxCell id="Oy1cbulnrsk7dN2Pcbd7-34" value="Necessário compra?" style="rhombus;whiteSpace=wrap;html=1;strokeColor=#a6a61d;fontSize=10;fillColor=#ffffcc;" parent="3ngB4kAbQusvfdiSP5Xu-5" vertex="1">
          <mxGeometry x="1170" y="15" width="70" height="70" as="geometry" />
        </mxCell>
        <mxCell id="7S2bCDqArC1DxhJI_XL0-23" style="edgeStyle=orthogonalEdgeStyle;rounded=0;orthogonalLoop=1;jettySize=auto;html=1;exitX=1;exitY=0.5;exitDx=0;exitDy=0;entryX=0;entryY=0.5;entryDx=0;entryDy=0;" edge="1" parent="3ngB4kAbQusvfdiSP5Xu-5" source="7S2bCDqArC1DxhJI_XL0-10" target="Oy1cbulnrsk7dN2Pcbd7-34">
          <mxGeometry relative="1" as="geometry" />
        </mxCell>
        <mxCell id="7S2bCDqArC1DxhJI_XL0-10" value="&lt;span style=&quot;font-size: 10px;&quot;&gt;Verificar disponibilidade de ferramental&lt;/span&gt;" style="rounded=1;whiteSpace=wrap;html=1;absoluteArcSize=1;arcSize=14;strokeWidth=2;fillColor=#dae8fc;strokeColor=#6c8ebf;" vertex="1" parent="3ngB4kAbQusvfdiSP5Xu-5">
          <mxGeometry x="1010" y="25" width="100" height="50" as="geometry" />
        </mxCell>
        <mxCell id="3ngB4kAbQusvfdiSP5Xu-11" value="AGA" style="swimlane;startSize=20;horizontal=0;html=1;rounded=0;" parent="REOEvnUnP1cKmhOiyPTP-1" vertex="1">
          <mxGeometry x="20" y="460" width="1610" height="120" as="geometry">
            <mxRectangle x="20" y="360" width="780" height="30" as="alternateBounds" />
          </mxGeometry>
        </mxCell>
        <mxCell id="v3_SV2aUN1-4RCRF9CUd-20" style="edgeStyle=orthogonalEdgeStyle;rounded=0;orthogonalLoop=1;jettySize=auto;html=1;exitX=1;exitY=0.5;exitDx=0;exitDy=0;entryX=0;entryY=0.5;entryDx=0;entryDy=0;fontSize=10;" parent="3ngB4kAbQusvfdiSP5Xu-11" source="7S2bCDqArC1DxhJI_XL0-11" target="v3_SV2aUN1-4RCRF9CUd-18" edge="1">
          <mxGeometry relative="1" as="geometry">
            <mxPoint x="1160" y="60" as="targetPoint" />
            <mxPoint x="1120" y="60" as="sourcePoint" />
          </mxGeometry>
        </mxCell>
        <mxCell id="v3_SV2aUN1-4RCRF9CUd-18" value="Nível baixo?" style="rhombus;whiteSpace=wrap;html=1;strokeColor=#a6a61d;fontSize=10;fillColor=#ffffcc;" parent="3ngB4kAbQusvfdiSP5Xu-11" vertex="1">
          <mxGeometry x="1170" y="25" width="70" height="70" as="geometry" />
        </mxCell>
        <mxCell id="v3_SV2aUN1-4RCRF9CUd-46" value="Não" style="text;html=1;strokeColor=none;fillColor=none;align=center;verticalAlign=middle;whiteSpace=wrap;rounded=0;fontSize=10;" parent="3ngB4kAbQusvfdiSP5Xu-11" vertex="1">
          <mxGeometry x="1310" y="30" width="60" height="30" as="geometry" />
        </mxCell>
        <mxCell id="7S2bCDqArC1DxhJI_XL0-11" value="&lt;span style=&quot;font-size: 10px;&quot;&gt;Verificar saldo de material em estoque&lt;/span&gt;" style="rounded=1;whiteSpace=wrap;html=1;absoluteArcSize=1;arcSize=14;strokeWidth=2;fillColor=#dae8fc;strokeColor=#6c8ebf;" vertex="1" parent="3ngB4kAbQusvfdiSP5Xu-11">
          <mxGeometry x="1010" y="35" width="100" height="50" as="geometry" />
        </mxCell>
        <mxCell id="v3_SV2aUN1-4RCRF9CUd-19" style="edgeStyle=orthogonalEdgeStyle;rounded=0;orthogonalLoop=1;jettySize=auto;html=1;exitX=0.5;exitY=1;exitDx=0;exitDy=0;entryX=0.5;entryY=0;entryDx=0;entryDy=0;fontSize=10;" parent="REOEvnUnP1cKmhOiyPTP-1" source="v3_SV2aUN1-4RCRF9CUd-18" target="3ngB4kAbQusvfdiSP5Xu-24" edge="1">
          <mxGeometry relative="1" as="geometry" />
        </mxCell>
        <mxCell id="7S2bCDqArC1DxhJI_XL0-18" value="Sim" style="edgeLabel;html=1;align=center;verticalAlign=middle;resizable=0;points=[];" vertex="1" connectable="0" parent="v3_SV2aUN1-4RCRF9CUd-19">
          <mxGeometry x="-0.2533" y="3" relative="1" as="geometry">
            <mxPoint x="-3" y="-3" as="offset" />
          </mxGeometry>
        </mxCell>
        <mxCell id="3ngB4kAbQusvfdiSP5Xu-23" value="Compras" style="swimlane;startSize=20;horizontal=0;html=1;rounded=0;" parent="REOEvnUnP1cKmhOiyPTP-1" vertex="1">
          <mxGeometry x="20" y="580" width="1610" height="100" as="geometry">
            <mxRectangle x="20" y="30" width="650" height="30" as="alternateBounds" />
          </mxGeometry>
        </mxCell>
        <mxCell id="Oy1cbulnrsk7dN2Pcbd7-35" value="Nível baixo?" style="rhombus;whiteSpace=wrap;html=1;strokeColor=#a6a61d;fontSize=10;fillColor=#ffffcc;" parent="3ngB4kAbQusvfdiSP5Xu-23" vertex="1">
          <mxGeometry x="1300" y="15" width="70" height="70" as="geometry" />
        </mxCell>
        <mxCell id="3ngB4kAbQusvfdiSP5Xu-24" value="&lt;span style=&quot;font-size: 10px;&quot;&gt;Verificar se existe P.O. em andamento&lt;/span&gt;" style="rounded=1;whiteSpace=wrap;html=1;absoluteArcSize=1;arcSize=14;strokeWidth=2;fillColor=#dae8fc;strokeColor=#6c8ebf;" parent="3ngB4kAbQusvfdiSP5Xu-23" vertex="1">
          <mxGeometry x="1155" y="25" width="100" height="50" as="geometry" />
        </mxCell>
        <mxCell id="3ngB4kAbQusvfdiSP5Xu-30" value="Planejamento" style="swimlane;startSize=20;horizontal=0;html=1;rounded=0;" parent="REOEvnUnP1cKmhOiyPTP-1" vertex="1">
          <mxGeometry x="20" y="680" width="1610" height="100" as="geometry">
            <mxRectangle x="20" y="360" width="780" height="30" as="alternateBounds" />
          </mxGeometry>
        </mxCell>
        <mxCell id="7S2bCDqArC1DxhJI_XL0-12" value="&lt;span style=&quot;font-size: 10px;&quot;&gt;Verificar tempo previsto para atividade&lt;/span&gt;" style="rounded=1;whiteSpace=wrap;html=1;absoluteArcSize=1;arcSize=14;strokeWidth=2;fillColor=#dae8fc;strokeColor=#6c8ebf;" vertex="1" parent="3ngB4kAbQusvfdiSP5Xu-30">
          <mxGeometry x="1010" y="25" width="100" height="50" as="geometry" />
        </mxCell>
        <mxCell id="7S2bCDqArC1DxhJI_XL0-19" style="edgeStyle=orthogonalEdgeStyle;rounded=0;orthogonalLoop=1;jettySize=auto;html=1;exitX=1;exitY=0.5;exitDx=0;exitDy=0;entryX=0;entryY=0.5;entryDx=0;entryDy=0;" edge="1" parent="REOEvnUnP1cKmhOiyPTP-1" source="7S2bCDqArC1DxhJI_XL0-8" target="7S2bCDqArC1DxhJI_XL0-9">
          <mxGeometry relative="1" as="geometry" />
        </mxCell>
        <mxCell id="7S2bCDqArC1DxhJI_XL0-20" style="edgeStyle=orthogonalEdgeStyle;rounded=0;orthogonalLoop=1;jettySize=auto;html=1;exitX=1;exitY=0.5;exitDx=0;exitDy=0;entryX=0;entryY=0.5;entryDx=0;entryDy=0;" edge="1" parent="REOEvnUnP1cKmhOiyPTP-1" source="7S2bCDqArC1DxhJI_XL0-8" target="7S2bCDqArC1DxhJI_XL0-10">
          <mxGeometry relative="1" as="geometry" />
        </mxCell>
        <mxCell id="7S2bCDqArC1DxhJI_XL0-21" style="edgeStyle=orthogonalEdgeStyle;rounded=0;orthogonalLoop=1;jettySize=auto;html=1;exitX=1;exitY=0.5;exitDx=0;exitDy=0;entryX=0;entryY=0.5;entryDx=0;entryDy=0;" edge="1" parent="REOEvnUnP1cKmhOiyPTP-1" source="7S2bCDqArC1DxhJI_XL0-8" target="7S2bCDqArC1DxhJI_XL0-11">
          <mxGeometry relative="1" as="geometry" />
        </mxCell>
        <mxCell id="7S2bCDqArC1DxhJI_XL0-22" style="edgeStyle=orthogonalEdgeStyle;rounded=0;orthogonalLoop=1;jettySize=auto;html=1;exitX=1;exitY=0.5;exitDx=0;exitDy=0;entryX=0;entryY=0.5;entryDx=0;entryDy=0;" edge="1" parent="REOEvnUnP1cKmhOiyPTP-1" source="7S2bCDqArC1DxhJI_XL0-8" target="7S2bCDqArC1DxhJI_XL0-12">
          <mxGeometry relative="1" as="geometry" />
        </mxCell>
      </root>
    </mxGraphModel>
  </diagram>
</mxfile>
